ISO-10303-21;
HEADER;
/* Generated by software containing ST-Developer
 * from STEP Tools, Inc. (www.steptools.com) 
 */
/* OPTION: using custom renumber hook */

FILE_DESCRIPTION(
/* description */ ('STEP AP242',
'CAx-IF Rec.Pracs.---Representation and Presentation of Product Manufa
cturing Information (PMI)---4.0---2014-10-13',
'CAx-IF Rec.Pracs.---3D Tessellated Geometry---0.4---2014-09-14','2;1'),

/* implementation_level */ '2;1');

FILE_NAME(
/* name */ '68f84b6ddce4e338d84b1ba6',
/* time_stamp */ '2025-10-22T03:11:41Z',
/* author */ (''),
/* organization */ (''),
/* preprocessor_version */ 'ST-DEVELOPER v20',
/* originating_system */ 'ONSHAPE BY PTC INC, 1.205',
/* authorisation */ '  ');

FILE_SCHEMA (('AP242_MANAGED_MODEL_BASED_3D_ENGINEERING_MIM_LF { 1 0 10303 442 1 1 4 }'));
ENDSEC;

DATA;
#10=SHAPE_REPRESENTATION_RELATIONSHIP('','',#552,#11);
#11=ADVANCED_BREP_SHAPE_REPRESENTATION('',(#550),#967);
#12=CONICAL_SURFACE('',#600,0.0065,0.982793723247329);
#13=LINE('',#820,#49);
#14=LINE('',#828,#50);
#15=LINE('',#836,#51);
#16=LINE('',#844,#52);
#17=LINE('',#852,#53);
#18=LINE('',#860,#54);
#19=LINE('',#864,#55);
#20=LINE('',#873,#56);
#21=LINE('',#881,#57);
#22=LINE('',#889,#58);
#23=LINE('',#897,#59);
#24=LINE('',#905,#60);
#25=LINE('',#919,#61);
#26=LINE('',#920,#62);
#27=LINE('',#922,#63);
#28=LINE('',#923,#64);
#29=LINE('',#925,#65);
#30=LINE('',#926,#66);
#31=LINE('',#928,#67);
#32=LINE('',#929,#68);
#33=LINE('',#931,#69);
#34=LINE('',#932,#70);
#35=LINE('',#934,#71);
#36=LINE('',#935,#72);
#37=LINE('',#937,#73);
#38=LINE('',#938,#74);
#39=LINE('',#940,#75);
#40=LINE('',#941,#76);
#41=LINE('',#943,#77);
#42=LINE('',#944,#78);
#43=LINE('',#946,#79);
#44=LINE('',#947,#80);
#45=LINE('',#949,#81);
#46=LINE('',#950,#82);
#47=LINE('',#952,#83);
#48=LINE('',#953,#84);
#49=VECTOR('',#643,1.);
#50=VECTOR('',#650,1.);
#51=VECTOR('',#657,1.);
#52=VECTOR('',#664,1.);
#53=VECTOR('',#671,1.);
#54=VECTOR('',#678,1.);
#55=VECTOR('',#683,1.);
#56=VECTOR('',#690,1.);
#57=VECTOR('',#697,1.);
#58=VECTOR('',#704,1.);
#59=VECTOR('',#711,1.);
#60=VECTOR('',#718,1.);
#61=VECTOR('',#735,1.);
#62=VECTOR('',#736,1.);
#63=VECTOR('',#739,1.);
#64=VECTOR('',#740,1.);
#65=VECTOR('',#743,1.);
#66=VECTOR('',#744,1.);
#67=VECTOR('',#747,1.);
#68=VECTOR('',#748,1.);
#69=VECTOR('',#751,1.);
#70=VECTOR('',#752,1.);
#71=VECTOR('',#755,1.);
#72=VECTOR('',#756,1.);
#73=VECTOR('',#759,1.);
#74=VECTOR('',#760,1.);
#75=VECTOR('',#763,1.);
#76=VECTOR('',#764,1.);
#77=VECTOR('',#767,1.);
#78=VECTOR('',#768,1.);
#79=VECTOR('',#771,1.);
#80=VECTOR('',#772,1.);
#81=VECTOR('',#775,1.);
#82=VECTOR('',#776,1.);
#83=VECTOR('',#779,1.);
#84=VECTOR('',#780,1.);
#85=CYLINDRICAL_SURFACE('',#557,0.005);
#86=CYLINDRICAL_SURFACE('',#598,0.005);
#87=CYLINDRICAL_SURFACE('',#602,0.0001);
#88=CYLINDRICAL_SURFACE('',#604,0.0001);
#89=CYLINDRICAL_SURFACE('',#606,0.0001);
#90=CYLINDRICAL_SURFACE('',#608,0.0001);
#91=CYLINDRICAL_SURFACE('',#610,0.0001);
#92=CYLINDRICAL_SURFACE('',#612,0.0001);
#93=CYLINDRICAL_SURFACE('',#613,0.0002);
#94=CYLINDRICAL_SURFACE('',#614,0.0002);
#95=CYLINDRICAL_SURFACE('',#615,0.0002);
#96=CYLINDRICAL_SURFACE('',#616,0.0002);
#97=CYLINDRICAL_SURFACE('',#617,0.0002);
#98=CYLINDRICAL_SURFACE('',#618,0.0002);
#99=CYLINDRICAL_SURFACE('',#619,0.0002);
#100=CYLINDRICAL_SURFACE('',#620,0.0002);
#101=CYLINDRICAL_SURFACE('',#621,0.0002);
#102=CYLINDRICAL_SURFACE('',#622,0.0002);
#103=CYLINDRICAL_SURFACE('',#623,0.0002);
#104=CYLINDRICAL_SURFACE('',#624,0.0002);
#105=ORIENTED_EDGE('',*,*,#259,.F.);
#106=ORIENTED_EDGE('',*,*,#260,.T.);
#107=ORIENTED_EDGE('',*,*,#261,.T.);
#108=ORIENTED_EDGE('',*,*,#260,.F.);
#109=ORIENTED_EDGE('',*,*,#262,.F.);
#110=ORIENTED_EDGE('',*,*,#263,.T.);
#111=ORIENTED_EDGE('',*,*,#264,.F.);
#112=ORIENTED_EDGE('',*,*,#265,.T.);
#113=ORIENTED_EDGE('',*,*,#266,.F.);
#114=ORIENTED_EDGE('',*,*,#267,.T.);
#115=ORIENTED_EDGE('',*,*,#268,.F.);
#116=ORIENTED_EDGE('',*,*,#269,.T.);
#117=ORIENTED_EDGE('',*,*,#270,.F.);
#118=ORIENTED_EDGE('',*,*,#271,.T.);
#119=ORIENTED_EDGE('',*,*,#272,.F.);
#120=ORIENTED_EDGE('',*,*,#273,.T.);
#121=ORIENTED_EDGE('',*,*,#274,.F.);
#122=ORIENTED_EDGE('',*,*,#275,.T.);
#123=ORIENTED_EDGE('',*,*,#276,.F.);
#124=ORIENTED_EDGE('',*,*,#277,.T.);
#125=ORIENTED_EDGE('',*,*,#278,.F.);
#126=ORIENTED_EDGE('',*,*,#279,.T.);
#127=ORIENTED_EDGE('',*,*,#280,.F.);
#128=ORIENTED_EDGE('',*,*,#281,.T.);
#129=ORIENTED_EDGE('',*,*,#282,.F.);
#130=ORIENTED_EDGE('',*,*,#283,.T.);
#131=ORIENTED_EDGE('',*,*,#284,.F.);
#132=ORIENTED_EDGE('',*,*,#285,.T.);
#133=ORIENTED_EDGE('',*,*,#261,.F.);
#134=ORIENTED_EDGE('',*,*,#286,.T.);
#135=ORIENTED_EDGE('',*,*,#287,.T.);
#136=ORIENTED_EDGE('',*,*,#288,.T.);
#137=ORIENTED_EDGE('',*,*,#289,.T.);
#138=ORIENTED_EDGE('',*,*,#290,.T.);
#139=ORIENTED_EDGE('',*,*,#291,.T.);
#140=ORIENTED_EDGE('',*,*,#292,.T.);
#141=ORIENTED_EDGE('',*,*,#293,.T.);
#142=ORIENTED_EDGE('',*,*,#294,.T.);
#143=ORIENTED_EDGE('',*,*,#295,.T.);
#144=ORIENTED_EDGE('',*,*,#296,.T.);
#145=ORIENTED_EDGE('',*,*,#297,.T.);
#146=ORIENTED_EDGE('',*,*,#298,.T.);
#147=ORIENTED_EDGE('',*,*,#299,.T.);
#148=ORIENTED_EDGE('',*,*,#300,.T.);
#149=ORIENTED_EDGE('',*,*,#301,.T.);
#150=ORIENTED_EDGE('',*,*,#302,.T.);
#151=ORIENTED_EDGE('',*,*,#303,.T.);
#152=ORIENTED_EDGE('',*,*,#304,.T.);
#153=ORIENTED_EDGE('',*,*,#305,.T.);
#154=ORIENTED_EDGE('',*,*,#306,.T.);
#155=ORIENTED_EDGE('',*,*,#307,.T.);
#156=ORIENTED_EDGE('',*,*,#308,.T.);
#157=ORIENTED_EDGE('',*,*,#309,.T.);
#158=ORIENTED_EDGE('',*,*,#310,.T.);
#159=ORIENTED_EDGE('',*,*,#310,.F.);
#160=ORIENTED_EDGE('',*,*,#311,.T.);
#161=ORIENTED_EDGE('',*,*,#311,.F.);
#162=ORIENTED_EDGE('',*,*,#259,.T.);
#163=ORIENTED_EDGE('',*,*,#294,.F.);
#164=ORIENTED_EDGE('',*,*,#312,.T.);
#165=ORIENTED_EDGE('',*,*,#280,.T.);
#166=ORIENTED_EDGE('',*,*,#313,.T.);
#167=ORIENTED_EDGE('',*,*,#296,.F.);
#168=ORIENTED_EDGE('',*,*,#314,.T.);
#169=ORIENTED_EDGE('',*,*,#278,.T.);
#170=ORIENTED_EDGE('',*,*,#315,.T.);
#171=ORIENTED_EDGE('',*,*,#298,.F.);
#172=ORIENTED_EDGE('',*,*,#316,.T.);
#173=ORIENTED_EDGE('',*,*,#276,.T.);
#174=ORIENTED_EDGE('',*,*,#317,.T.);
#175=ORIENTED_EDGE('',*,*,#300,.F.);
#176=ORIENTED_EDGE('',*,*,#318,.T.);
#177=ORIENTED_EDGE('',*,*,#274,.T.);
#178=ORIENTED_EDGE('',*,*,#319,.T.);
#179=ORIENTED_EDGE('',*,*,#302,.F.);
#180=ORIENTED_EDGE('',*,*,#320,.T.);
#181=ORIENTED_EDGE('',*,*,#272,.T.);
#182=ORIENTED_EDGE('',*,*,#321,.T.);
#183=ORIENTED_EDGE('',*,*,#304,.F.);
#184=ORIENTED_EDGE('',*,*,#322,.T.);
#185=ORIENTED_EDGE('',*,*,#270,.T.);
#186=ORIENTED_EDGE('',*,*,#323,.T.);
#187=ORIENTED_EDGE('',*,*,#306,.F.);
#188=ORIENTED_EDGE('',*,*,#324,.T.);
#189=ORIENTED_EDGE('',*,*,#268,.T.);
#190=ORIENTED_EDGE('',*,*,#325,.T.);
#191=ORIENTED_EDGE('',*,*,#266,.T.);
#192=ORIENTED_EDGE('',*,*,#326,.T.);
#193=ORIENTED_EDGE('',*,*,#308,.F.);
#194=ORIENTED_EDGE('',*,*,#327,.T.);
#195=ORIENTED_EDGE('',*,*,#264,.T.);
#196=ORIENTED_EDGE('',*,*,#328,.T.);
#197=ORIENTED_EDGE('',*,*,#286,.F.);
#198=ORIENTED_EDGE('',*,*,#329,.T.);
#199=ORIENTED_EDGE('',*,*,#288,.F.);
#200=ORIENTED_EDGE('',*,*,#330,.T.);
#201=ORIENTED_EDGE('',*,*,#262,.T.);
#202=ORIENTED_EDGE('',*,*,#331,.T.);
#203=ORIENTED_EDGE('',*,*,#290,.F.);
#204=ORIENTED_EDGE('',*,*,#332,.T.);
#205=ORIENTED_EDGE('',*,*,#284,.T.);
#206=ORIENTED_EDGE('',*,*,#333,.T.);
#207=ORIENTED_EDGE('',*,*,#292,.F.);
#208=ORIENTED_EDGE('',*,*,#334,.T.);
#209=ORIENTED_EDGE('',*,*,#282,.T.);
#210=ORIENTED_EDGE('',*,*,#335,.T.);
#211=ORIENTED_EDGE('',*,*,#287,.F.);
#212=ORIENTED_EDGE('',*,*,#328,.F.);
#213=ORIENTED_EDGE('',*,*,#263,.F.);
#214=ORIENTED_EDGE('',*,*,#330,.F.);
#215=ORIENTED_EDGE('',*,*,#289,.F.);
#216=ORIENTED_EDGE('',*,*,#331,.F.);
#217=ORIENTED_EDGE('',*,*,#285,.F.);
#218=ORIENTED_EDGE('',*,*,#332,.F.);
#219=ORIENTED_EDGE('',*,*,#291,.F.);
#220=ORIENTED_EDGE('',*,*,#333,.F.);
#221=ORIENTED_EDGE('',*,*,#283,.F.);
#222=ORIENTED_EDGE('',*,*,#334,.F.);
#223=ORIENTED_EDGE('',*,*,#293,.F.);
#224=ORIENTED_EDGE('',*,*,#335,.F.);
#225=ORIENTED_EDGE('',*,*,#281,.F.);
#226=ORIENTED_EDGE('',*,*,#312,.F.);
#227=ORIENTED_EDGE('',*,*,#295,.F.);
#228=ORIENTED_EDGE('',*,*,#313,.F.);
#229=ORIENTED_EDGE('',*,*,#279,.F.);
#230=ORIENTED_EDGE('',*,*,#314,.F.);
#231=ORIENTED_EDGE('',*,*,#297,.F.);
#232=ORIENTED_EDGE('',*,*,#315,.F.);
#233=ORIENTED_EDGE('',*,*,#277,.F.);
#234=ORIENTED_EDGE('',*,*,#316,.F.);
#235=ORIENTED_EDGE('',*,*,#299,.F.);
#236=ORIENTED_EDGE('',*,*,#317,.F.);
#237=ORIENTED_EDGE('',*,*,#275,.F.);
#238=ORIENTED_EDGE('',*,*,#318,.F.);
#239=ORIENTED_EDGE('',*,*,#301,.F.);
#240=ORIENTED_EDGE('',*,*,#319,.F.);
#241=ORIENTED_EDGE('',*,*,#273,.F.);
#242=ORIENTED_EDGE('',*,*,#320,.F.);
#243=ORIENTED_EDGE('',*,*,#303,.F.);
#244=ORIENTED_EDGE('',*,*,#321,.F.);
#245=ORIENTED_EDGE('',*,*,#271,.F.);
#246=ORIENTED_EDGE('',*,*,#322,.F.);
#247=ORIENTED_EDGE('',*,*,#305,.F.);
#248=ORIENTED_EDGE('',*,*,#323,.F.);
#249=ORIENTED_EDGE('',*,*,#269,.F.);
#250=ORIENTED_EDGE('',*,*,#324,.F.);
#251=ORIENTED_EDGE('',*,*,#309,.F.);
#252=ORIENTED_EDGE('',*,*,#326,.F.);
#253=ORIENTED_EDGE('',*,*,#265,.F.);
#254=ORIENTED_EDGE('',*,*,#329,.F.);
#255=ORIENTED_EDGE('',*,*,#307,.F.);
#256=ORIENTED_EDGE('',*,*,#325,.F.);
#257=ORIENTED_EDGE('',*,*,#267,.F.);
#258=ORIENTED_EDGE('',*,*,#327,.F.);
#259=EDGE_CURVE('',#336,#336,#389,.T.);
#260=EDGE_CURVE('',#337,#337,#390,.T.);
#261=EDGE_CURVE('',#338,#338,#391,.T.);
#262=EDGE_CURVE('',#339,#340,#392,.T.);
#263=EDGE_CURVE('',#339,#341,#393,.F.);
#264=EDGE_CURVE('',#342,#341,#13,.T.);
#265=EDGE_CURVE('',#342,#343,#394,.F.);
#266=EDGE_CURVE('',#344,#343,#395,.T.);
#267=EDGE_CURVE('',#344,#345,#396,.F.);
#268=EDGE_CURVE('',#346,#345,#14,.T.);
#269=EDGE_CURVE('',#346,#347,#397,.F.);
#270=EDGE_CURVE('',#348,#347,#398,.T.);
#271=EDGE_CURVE('',#348,#349,#399,.F.);
#272=EDGE_CURVE('',#350,#349,#15,.T.);
#273=EDGE_CURVE('',#350,#351,#400,.F.);
#274=EDGE_CURVE('',#352,#351,#401,.T.);
#275=EDGE_CURVE('',#352,#353,#402,.F.);
#276=EDGE_CURVE('',#354,#353,#16,.T.);
#277=EDGE_CURVE('',#354,#355,#403,.F.);
#278=EDGE_CURVE('',#356,#355,#404,.T.);
#279=EDGE_CURVE('',#356,#357,#405,.F.);
#280=EDGE_CURVE('',#358,#357,#17,.T.);
#281=EDGE_CURVE('',#358,#359,#406,.F.);
#282=EDGE_CURVE('',#360,#359,#407,.T.);
#283=EDGE_CURVE('',#360,#361,#408,.F.);
#284=EDGE_CURVE('',#362,#361,#18,.T.);
#285=EDGE_CURVE('',#362,#340,#409,.F.);
#286=EDGE_CURVE('',#363,#364,#19,.T.);
#287=EDGE_CURVE('',#364,#365,#410,.F.);
#288=EDGE_CURVE('',#365,#366,#411,.T.);
#289=EDGE_CURVE('',#366,#367,#412,.F.);
#290=EDGE_CURVE('',#367,#368,#20,.T.);
#291=EDGE_CURVE('',#368,#369,#413,.F.);
#292=EDGE_CURVE('',#369,#370,#414,.T.);
#293=EDGE_CURVE('',#370,#371,#415,.F.);
#294=EDGE_CURVE('',#371,#372,#21,.T.);
#295=EDGE_CURVE('',#372,#373,#416,.F.);
#296=EDGE_CURVE('',#373,#374,#417,.T.);
#297=EDGE_CURVE('',#374,#375,#418,.F.);
#298=EDGE_CURVE('',#375,#376,#22,.T.);
#299=EDGE_CURVE('',#376,#377,#419,.F.);
#300=EDGE_CURVE('',#377,#378,#420,.T.);
#301=EDGE_CURVE('',#378,#379,#421,.F.);
#302=EDGE_CURVE('',#379,#380,#23,.T.);
#303=EDGE_CURVE('',#380,#381,#422,.F.);
#304=EDGE_CURVE('',#381,#382,#423,.T.);
#305=EDGE_CURVE('',#382,#383,#424,.F.);
#306=EDGE_CURVE('',#383,#384,#24,.T.);
#307=EDGE_CURVE('',#384,#385,#425,.F.);
#308=EDGE_CURVE('',#385,#386,#426,.T.);
#309=EDGE_CURVE('',#386,#363,#427,.F.);
#310=EDGE_CURVE('',#387,#387,#428,.T.);
#311=EDGE_CURVE('',#388,#388,#429,.T.);
#312=EDGE_CURVE('',#371,#358,#25,.T.);
#313=EDGE_CURVE('',#357,#372,#26,.F.);
#314=EDGE_CURVE('',#373,#356,#27,.T.);
#315=EDGE_CURVE('',#355,#374,#28,.F.);
#316=EDGE_CURVE('',#375,#354,#29,.T.);
#317=EDGE_CURVE('',#353,#376,#30,.F.);
#318=EDGE_CURVE('',#377,#352,#31,.T.);
#319=EDGE_CURVE('',#351,#378,#32,.F.);
#320=EDGE_CURVE('',#379,#350,#33,.T.);
#321=EDGE_CURVE('',#349,#380,#34,.F.);
#322=EDGE_CURVE('',#381,#348,#35,.T.);
#323=EDGE_CURVE('',#347,#382,#36,.F.);
#324=EDGE_CURVE('',#383,#346,#37,.T.);
#325=EDGE_CURVE('',#345,#384,#38,.F.);
#326=EDGE_CURVE('',#343,#386,#39,.F.);
#327=EDGE_CURVE('',#385,#344,#40,.T.);
#328=EDGE_CURVE('',#341,#364,#41,.F.);
#329=EDGE_CURVE('',#363,#342,#42,.T.);
#330=EDGE_CURVE('',#365,#339,#43,.T.);
#331=EDGE_CURVE('',#340,#366,#44,.F.);
#332=EDGE_CURVE('',#367,#362,#45,.T.);
#333=EDGE_CURVE('',#361,#368,#46,.F.);
#334=EDGE_CURVE('',#369,#360,#47,.T.);
#335=EDGE_CURVE('',#359,#370,#48,.F.);
#336=VERTEX_POINT('',#808);
#337=VERTEX_POINT('',#810);
#338=VERTEX_POINT('',#813);
#339=VERTEX_POINT('',#816);
#340=VERTEX_POINT('',#817);
#341=VERTEX_POINT('',#819);
#342=VERTEX_POINT('',#821);
#343=VERTEX_POINT('',#823);
#344=VERTEX_POINT('',#825);
#345=VERTEX_POINT('',#827);
#346=VERTEX_POINT('',#829);
#347=VERTEX_POINT('',#831);
#348=VERTEX_POINT('',#833);
#349=VERTEX_POINT('',#835);
#350=VERTEX_POINT('',#837);
#351=VERTEX_POINT('',#839);
#352=VERTEX_POINT('',#841);
#353=VERTEX_POINT('',#843);
#354=VERTEX_POINT('',#845);
#355=VERTEX_POINT('',#847);
#356=VERTEX_POINT('',#849);
#357=VERTEX_POINT('',#851);
#358=VERTEX_POINT('',#853);
#359=VERTEX_POINT('',#855);
#360=VERTEX_POINT('',#857);
#361=VERTEX_POINT('',#859);
#362=VERTEX_POINT('',#861);
#363=VERTEX_POINT('',#865);
#364=VERTEX_POINT('',#866);
#365=VERTEX_POINT('',#868);
#366=VERTEX_POINT('',#870);
#367=VERTEX_POINT('',#872);
#368=VERTEX_POINT('',#874);
#369=VERTEX_POINT('',#876);
#370=VERTEX_POINT('',#878);
#371=VERTEX_POINT('',#880);
#372=VERTEX_POINT('',#882);
#373=VERTEX_POINT('',#884);
#374=VERTEX_POINT('',#886);
#375=VERTEX_POINT('',#888);
#376=VERTEX_POINT('',#890);
#377=VERTEX_POINT('',#892);
#378=VERTEX_POINT('',#894);
#379=VERTEX_POINT('',#896);
#380=VERTEX_POINT('',#898);
#381=VERTEX_POINT('',#900);
#382=VERTEX_POINT('',#902);
#383=VERTEX_POINT('',#904);
#384=VERTEX_POINT('',#906);
#385=VERTEX_POINT('',#908);
#386=VERTEX_POINT('',#910);
#387=VERTEX_POINT('',#913);
#388=VERTEX_POINT('',#916);
#389=CIRCLE('',#555,0.0065);
#390=CIRCLE('',#556,0.005);
#391=CIRCLE('',#558,0.005);
#392=CIRCLE('',#560,0.0001);
#393=CIRCLE('',#561,0.0002);
#394=CIRCLE('',#562,0.0002);
#395=CIRCLE('',#563,0.0001);
#396=CIRCLE('',#564,0.0002);
#397=CIRCLE('',#565,0.0002);
#398=CIRCLE('',#566,0.0001);
#399=CIRCLE('',#567,0.0002);
#400=CIRCLE('',#568,0.0002);
#401=CIRCLE('',#569,0.0001);
#402=CIRCLE('',#570,0.0002);
#403=CIRCLE('',#571,0.0002);
#404=CIRCLE('',#572,0.0001);
#405=CIRCLE('',#573,0.0002);
#406=CIRCLE('',#574,0.0002);
#407=CIRCLE('',#575,0.0001);
#408=CIRCLE('',#576,0.0002);
#409=CIRCLE('',#577,0.0002);
#410=CIRCLE('',#579,0.0002);
#411=CIRCLE('',#580,0.0001);
#412=CIRCLE('',#581,0.0002);
#413=CIRCLE('',#582,0.0002);
#414=CIRCLE('',#583,0.0001);
#415=CIRCLE('',#584,0.0002);
#416=CIRCLE('',#585,0.0002);
#417=CIRCLE('',#586,0.0001);
#418=CIRCLE('',#587,0.0002);
#419=CIRCLE('',#588,0.0002);
#420=CIRCLE('',#589,0.0001);
#421=CIRCLE('',#590,0.0002);
#422=CIRCLE('',#591,0.0002);
#423=CIRCLE('',#592,0.0001);
#424=CIRCLE('',#593,0.0002);
#425=CIRCLE('',#594,0.0002);
#426=CIRCLE('',#595,0.0001);
#427=CIRCLE('',#596,0.0002);
#428=CIRCLE('',#597,0.005);
#429=CIRCLE('',#599,0.005);
#430=EDGE_LOOP('',(#105));
#431=EDGE_LOOP('',(#106));
#432=EDGE_LOOP('',(#107));
#433=EDGE_LOOP('',(#108));
#434=EDGE_LOOP('',(#109,#110,#111,#112,#113,#114,#115,#116,#117,#118,#119,
#120,#121,#122,#123,#124,#125,#126,#127,#128,#129,#130,#131,#132));
#435=EDGE_LOOP('',(#133));
#436=EDGE_LOOP('',(#134,#135,#136,#137,#138,#139,#140,#141,#142,#143,#144,
#145,#146,#147,#148,#149,#150,#151,#152,#153,#154,#155,#156,#157));
#437=EDGE_LOOP('',(#158));
#438=EDGE_LOOP('',(#159));
#439=EDGE_LOOP('',(#160));
#440=EDGE_LOOP('',(#161));
#441=EDGE_LOOP('',(#162));
#442=EDGE_LOOP('',(#163,#164,#165,#166));
#443=EDGE_LOOP('',(#167,#168,#169,#170));
#444=EDGE_LOOP('',(#171,#172,#173,#174));
#445=EDGE_LOOP('',(#175,#176,#177,#178));
#446=EDGE_LOOP('',(#179,#180,#181,#182));
#447=EDGE_LOOP('',(#183,#184,#185,#186));
#448=EDGE_LOOP('',(#187,#188,#189,#190));
#449=EDGE_LOOP('',(#191,#192,#193,#194));
#450=EDGE_LOOP('',(#195,#196,#197,#198));
#451=EDGE_LOOP('',(#199,#200,#201,#202));
#452=EDGE_LOOP('',(#203,#204,#205,#206));
#453=EDGE_LOOP('',(#207,#208,#209,#210));
#454=EDGE_LOOP('',(#211,#212,#213,#214));
#455=EDGE_LOOP('',(#215,#216,#217,#218));
#456=EDGE_LOOP('',(#219,#220,#221,#222));
#457=EDGE_LOOP('',(#223,#224,#225,#226));
#458=EDGE_LOOP('',(#227,#228,#229,#230));
#459=EDGE_LOOP('',(#231,#232,#233,#234));
#460=EDGE_LOOP('',(#235,#236,#237,#238));
#461=EDGE_LOOP('',(#239,#240,#241,#242));
#462=EDGE_LOOP('',(#243,#244,#245,#246));
#463=EDGE_LOOP('',(#247,#248,#249,#250));
#464=EDGE_LOOP('',(#251,#252,#253,#254));
#465=EDGE_LOOP('',(#255,#256,#257,#258));
#466=FACE_BOUND('',#430,.T.);
#467=FACE_BOUND('',#431,.T.);
#468=FACE_BOUND('',#432,.T.);
#469=FACE_BOUND('',#433,.T.);
#470=FACE_BOUND('',#434,.T.);
#471=FACE_BOUND('',#435,.T.);
#472=FACE_BOUND('',#436,.T.);
#473=FACE_BOUND('',#437,.T.);
#474=FACE_BOUND('',#438,.T.);
#475=FACE_BOUND('',#439,.T.);
#476=FACE_BOUND('',#440,.T.);
#477=FACE_BOUND('',#441,.T.);
#478=FACE_BOUND('',#442,.T.);
#479=FACE_BOUND('',#443,.T.);
#480=FACE_BOUND('',#444,.T.);
#481=FACE_BOUND('',#445,.T.);
#482=FACE_BOUND('',#446,.T.);
#483=FACE_BOUND('',#447,.T.);
#484=FACE_BOUND('',#448,.T.);
#485=FACE_BOUND('',#449,.T.);
#486=FACE_BOUND('',#450,.T.);
#487=FACE_BOUND('',#451,.T.);
#488=FACE_BOUND('',#452,.T.);
#489=FACE_BOUND('',#453,.T.);
#490=FACE_BOUND('',#454,.T.);
#491=FACE_BOUND('',#455,.T.);
#492=FACE_BOUND('',#456,.T.);
#493=FACE_BOUND('',#457,.T.);
#494=FACE_BOUND('',#458,.T.);
#495=FACE_BOUND('',#459,.T.);
#496=FACE_BOUND('',#460,.T.);
#497=FACE_BOUND('',#461,.T.);
#498=FACE_BOUND('',#462,.T.);
#499=FACE_BOUND('',#463,.T.);
#500=FACE_BOUND('',#464,.T.);
#501=FACE_BOUND('',#465,.T.);
#502=PLANE('',#554);
#503=PLANE('',#559);
#504=PLANE('',#578);
#505=PLANE('',#601);
#506=PLANE('',#603);
#507=PLANE('',#605);
#508=PLANE('',#607);
#509=PLANE('',#609);
#510=PLANE('',#611);
#511=ADVANCED_FACE('',(#466,#467),#502,.F.);
#512=ADVANCED_FACE('',(#468,#469),#85,.T.);
#513=ADVANCED_FACE('',(#470,#471),#503,.F.);
#514=ADVANCED_FACE('',(#472,#473),#504,.F.);
#515=ADVANCED_FACE('',(#474,#475),#86,.T.);
#516=ADVANCED_FACE('',(#476,#477),#12,.T.);
#517=ADVANCED_FACE('',(#478),#505,.F.);
#518=ADVANCED_FACE('',(#479),#87,.F.);
#519=ADVANCED_FACE('',(#480),#506,.F.);
#520=ADVANCED_FACE('',(#481),#88,.F.);
#521=ADVANCED_FACE('',(#482),#507,.F.);
#522=ADVANCED_FACE('',(#483),#89,.F.);
#523=ADVANCED_FACE('',(#484),#508,.F.);
#524=ADVANCED_FACE('',(#485),#90,.F.);
#525=ADVANCED_FACE('',(#486),#509,.F.);
#526=ADVANCED_FACE('',(#487),#91,.F.);
#527=ADVANCED_FACE('',(#488),#510,.F.);
#528=ADVANCED_FACE('',(#489),#92,.F.);
#529=ADVANCED_FACE('',(#490),#93,.T.);
#530=ADVANCED_FACE('',(#491),#94,.T.);
#531=ADVANCED_FACE('',(#492),#95,.T.);
#532=ADVANCED_FACE('',(#493),#96,.T.);
#533=ADVANCED_FACE('',(#494),#97,.T.);
#534=ADVANCED_FACE('',(#495),#98,.T.);
#535=ADVANCED_FACE('',(#496),#99,.T.);
#536=ADVANCED_FACE('',(#497),#100,.T.);
#537=ADVANCED_FACE('',(#498),#101,.T.);
#538=ADVANCED_FACE('',(#499),#102,.T.);
#539=ADVANCED_FACE('',(#500),#103,.T.);
#540=ADVANCED_FACE('',(#501),#104,.T.);
#541=CLOSED_SHELL('',(#511,#512,#513,#514,#515,#516,#517,#518,#519,#520,
#521,#522,#523,#524,#525,#526,#527,#528,#529,#530,#531,#532,#533,#534,#535,
#536,#537,#538,#539,#540));
#542=STYLED_ITEM('',(#543),#550);
#543=PRESENTATION_STYLE_ASSIGNMENT((#544));
#544=SURFACE_STYLE_USAGE(.BOTH.,#545);
#545=SURFACE_SIDE_STYLE('',(#546));
#546=SURFACE_STYLE_FILL_AREA(#547);
#547=FILL_AREA_STYLE('',(#548));
#548=FILL_AREA_STYLE_COLOUR('',#549);
#549=COLOUR_RGB('',0.972549019607843,0.529411764705882,0.00392156862745098);
#550=MANIFOLD_SOLID_BREP('Holder',#541);
#551=SHAPE_DEFINITION_REPRESENTATION(#972,#552);
#552=SHAPE_REPRESENTATION('Holder',(#553),#967);
#553=AXIS2_PLACEMENT_3D('',#805,#625,#626);
#554=AXIS2_PLACEMENT_3D('',#806,#627,#628);
#555=AXIS2_PLACEMENT_3D('',#807,#629,#630);
#556=AXIS2_PLACEMENT_3D('',#809,#631,#632);
#557=AXIS2_PLACEMENT_3D('',#811,#633,#634);
#558=AXIS2_PLACEMENT_3D('',#812,#635,#636);
#559=AXIS2_PLACEMENT_3D('',#814,#637,#638);
#560=AXIS2_PLACEMENT_3D('',#815,#639,#640);
#561=AXIS2_PLACEMENT_3D('',#818,#641,#642);
#562=AXIS2_PLACEMENT_3D('',#822,#644,#645);
#563=AXIS2_PLACEMENT_3D('',#824,#646,#647);
#564=AXIS2_PLACEMENT_3D('',#826,#648,#649);
#565=AXIS2_PLACEMENT_3D('',#830,#651,#652);
#566=AXIS2_PLACEMENT_3D('',#832,#653,#654);
#567=AXIS2_PLACEMENT_3D('',#834,#655,#656);
#568=AXIS2_PLACEMENT_3D('',#838,#658,#659);
#569=AXIS2_PLACEMENT_3D('',#840,#660,#661);
#570=AXIS2_PLACEMENT_3D('',#842,#662,#663);
#571=AXIS2_PLACEMENT_3D('',#846,#665,#666);
#572=AXIS2_PLACEMENT_3D('',#848,#667,#668);
#573=AXIS2_PLACEMENT_3D('',#850,#669,#670);
#574=AXIS2_PLACEMENT_3D('',#854,#672,#673);
#575=AXIS2_PLACEMENT_3D('',#856,#674,#675);
#576=AXIS2_PLACEMENT_3D('',#858,#676,#677);
#577=AXIS2_PLACEMENT_3D('',#862,#679,#680);
#578=AXIS2_PLACEMENT_3D('',#863,#681,#682);
#579=AXIS2_PLACEMENT_3D('',#867,#684,#685);
#580=AXIS2_PLACEMENT_3D('',#869,#686,#687);
#581=AXIS2_PLACEMENT_3D('',#871,#688,#689);
#582=AXIS2_PLACEMENT_3D('',#875,#691,#692);
#583=AXIS2_PLACEMENT_3D('',#877,#693,#694);
#584=AXIS2_PLACEMENT_3D('',#879,#695,#696);
#585=AXIS2_PLACEMENT_3D('',#883,#698,#699);
#586=AXIS2_PLACEMENT_3D('',#885,#700,#701);
#587=AXIS2_PLACEMENT_3D('',#887,#702,#703);
#588=AXIS2_PLACEMENT_3D('',#891,#705,#706);
#589=AXIS2_PLACEMENT_3D('',#893,#707,#708);
#590=AXIS2_PLACEMENT_3D('',#895,#709,#710);
#591=AXIS2_PLACEMENT_3D('',#899,#712,#713);
#592=AXIS2_PLACEMENT_3D('',#901,#714,#715);
#593=AXIS2_PLACEMENT_3D('',#903,#716,#717);
#594=AXIS2_PLACEMENT_3D('',#907,#719,#720);
#595=AXIS2_PLACEMENT_3D('',#909,#721,#722);
#596=AXIS2_PLACEMENT_3D('',#911,#723,#724);
#597=AXIS2_PLACEMENT_3D('',#912,#725,#726);
#598=AXIS2_PLACEMENT_3D('',#914,#727,#728);
#599=AXIS2_PLACEMENT_3D('',#915,#729,#730);
#600=AXIS2_PLACEMENT_3D('',#917,#731,#732);
#601=AXIS2_PLACEMENT_3D('',#918,#733,#734);
#602=AXIS2_PLACEMENT_3D('',#921,#737,#738);
#603=AXIS2_PLACEMENT_3D('',#924,#741,#742);
#604=AXIS2_PLACEMENT_3D('',#927,#745,#746);
#605=AXIS2_PLACEMENT_3D('',#930,#749,#750);
#606=AXIS2_PLACEMENT_3D('',#933,#753,#754);
#607=AXIS2_PLACEMENT_3D('',#936,#757,#758);
#608=AXIS2_PLACEMENT_3D('',#939,#761,#762);
#609=AXIS2_PLACEMENT_3D('',#942,#765,#766);
#610=AXIS2_PLACEMENT_3D('',#945,#769,#770);
#611=AXIS2_PLACEMENT_3D('',#948,#773,#774);
#612=AXIS2_PLACEMENT_3D('',#951,#777,#778);
#613=AXIS2_PLACEMENT_3D('',#954,#781,#782);
#614=AXIS2_PLACEMENT_3D('',#955,#783,#784);
#615=AXIS2_PLACEMENT_3D('',#956,#785,#786);
#616=AXIS2_PLACEMENT_3D('',#957,#787,#788);
#617=AXIS2_PLACEMENT_3D('',#958,#789,#790);
#618=AXIS2_PLACEMENT_3D('',#959,#791,#792);
#619=AXIS2_PLACEMENT_3D('',#960,#793,#794);
#620=AXIS2_PLACEMENT_3D('',#961,#795,#796);
#621=AXIS2_PLACEMENT_3D('',#962,#797,#798);
#622=AXIS2_PLACEMENT_3D('',#963,#799,#800);
#623=AXIS2_PLACEMENT_3D('',#964,#801,#802);
#624=AXIS2_PLACEMENT_3D('',#965,#803,#804);
#625=DIRECTION('',(0.,0.,1.));
#626=DIRECTION('',(1.,0.,0.));
#627=DIRECTION('',(0.,0.,-1.));
#628=DIRECTION('',(-1.,0.,0.));
#629=DIRECTION('',(0.,0.,-1.));
#630=DIRECTION('',(-1.,0.,0.));
#631=DIRECTION('',(0.,0.,-1.));
#632=DIRECTION('',(-1.,0.,0.));
#633=DIRECTION('',(0.,0.,-1.));
#634=DIRECTION('',(-1.,0.,0.));
#635=DIRECTION('',(0.,0.,-1.));
#636=DIRECTION('',(-1.,0.,0.));
#637=DIRECTION('',(0.,0.,-1.));
#638=DIRECTION('',(-1.,0.,0.));
#639=DIRECTION('',(0.,0.,1.));
#640=DIRECTION('',(1.,0.,0.));
#641=DIRECTION('',(0.,0.,-1.));
#642=DIRECTION('',(-1.,0.,0.));
#643=DIRECTION('',(0.,-1.,0.));
#644=DIRECTION('',(0.,0.,-1.));
#645=DIRECTION('',(-1.,0.,0.));
#646=DIRECTION('',(0.,0.,1.));
#647=DIRECTION('',(1.,0.,0.));
#648=DIRECTION('',(0.,0.,-1.));
#649=DIRECTION('',(-1.,0.,0.));
#650=DIRECTION('',(-0.866025403784439,-0.5,0.));
#651=DIRECTION('',(0.,0.,-1.));
#652=DIRECTION('',(-1.,0.,0.));
#653=DIRECTION('',(0.,0.,1.));
#654=DIRECTION('',(1.,0.,0.));
#655=DIRECTION('',(0.,0.,-1.));
#656=DIRECTION('',(-1.,0.,0.));
#657=DIRECTION('',(-0.866025403784439,0.5,0.));
#658=DIRECTION('',(0.,0.,-1.));
#659=DIRECTION('',(-1.,0.,0.));
#660=DIRECTION('',(0.,0.,1.));
#661=DIRECTION('',(1.,0.,0.));
#662=DIRECTION('',(0.,0.,-1.));
#663=DIRECTION('',(-1.,0.,0.));
#664=DIRECTION('',(0.,1.,0.));
#665=DIRECTION('',(0.,0.,-1.));
#666=DIRECTION('',(-1.,0.,0.));
#667=DIRECTION('',(0.,0.,1.));
#668=DIRECTION('',(1.,0.,0.));
#669=DIRECTION('',(0.,0.,-1.));
#670=DIRECTION('',(-1.,0.,0.));
#671=DIRECTION('',(0.866025403784439,0.5,0.));
#672=DIRECTION('',(0.,0.,-1.));
#673=DIRECTION('',(-1.,0.,0.));
#674=DIRECTION('',(0.,0.,1.));
#675=DIRECTION('',(1.,0.,0.));
#676=DIRECTION('',(0.,0.,-1.));
#677=DIRECTION('',(-1.,0.,0.));
#678=DIRECTION('',(0.866025403784438,-0.5,0.));
#679=DIRECTION('',(0.,0.,-1.));
#680=DIRECTION('',(-1.,0.,0.));
#681=DIRECTION('',(0.,0.,1.));
#682=DIRECTION('',(1.,0.,0.));
#683=DIRECTION('',(0.,-1.,0.));
#684=DIRECTION('',(0.,0.,1.));
#685=DIRECTION('',(1.,0.,0.));
#686=DIRECTION('',(0.,0.,1.));
#687=DIRECTION('',(1.,0.,0.));
#688=DIRECTION('',(0.,0.,1.));
#689=DIRECTION('',(1.,0.,0.));
#690=DIRECTION('',(0.866025403784438,-0.5,0.));
#691=DIRECTION('',(0.,0.,1.));
#692=DIRECTION('',(1.,0.,0.));
#693=DIRECTION('',(0.,0.,1.));
#694=DIRECTION('',(1.,0.,0.));
#695=DIRECTION('',(0.,0.,1.));
#696=DIRECTION('',(1.,0.,0.));
#697=DIRECTION('',(0.866025403784439,0.5,0.));
#698=DIRECTION('',(0.,0.,1.));
#699=DIRECTION('',(1.,0.,0.));
#700=DIRECTION('',(0.,0.,1.));
#701=DIRECTION('',(1.,0.,0.));
#702=DIRECTION('',(0.,0.,1.));
#703=DIRECTION('',(1.,0.,0.));
#704=DIRECTION('',(0.,1.,0.));
#705=DIRECTION('',(0.,0.,1.));
#706=DIRECTION('',(1.,0.,0.));
#707=DIRECTION('',(0.,0.,1.));
#708=DIRECTION('',(1.,0.,0.));
#709=DIRECTION('',(0.,0.,1.));
#710=DIRECTION('',(1.,0.,0.));
#711=DIRECTION('',(-0.866025403784439,0.5,0.));
#712=DIRECTION('',(0.,0.,1.));
#713=DIRECTION('',(1.,0.,0.));
#714=DIRECTION('',(0.,0.,1.));
#715=DIRECTION('',(1.,0.,0.));
#716=DIRECTION('',(0.,0.,1.));
#717=DIRECTION('',(1.,0.,0.));
#718=DIRECTION('',(-0.866025403784439,-0.5,0.));
#719=DIRECTION('',(0.,0.,1.));
#720=DIRECTION('',(1.,0.,0.));
#721=DIRECTION('',(0.,0.,1.));
#722=DIRECTION('',(1.,0.,0.));
#723=DIRECTION('',(0.,0.,1.));
#724=DIRECTION('',(1.,0.,0.));
#725=DIRECTION('',(0.,0.,-1.));
#726=DIRECTION('',(-1.,0.,0.));
#727=DIRECTION('',(0.,0.,-1.));
#728=DIRECTION('',(-1.,0.,0.));
#729=DIRECTION('',(0.,0.,-1.));
#730=DIRECTION('',(-1.,0.,0.));
#731=DIRECTION('',(0.,0.,1.));
#732=DIRECTION('',(1.,0.,0.));
#733=DIRECTION('',(0.5,-0.866025403784439,0.));
#734=DIRECTION('',(0.866025403784439,0.5,0.));
#735=DIRECTION('',(0.,0.,1.));
#736=DIRECTION('',(0.,0.,1.));
#737=DIRECTION('',(0.,0.,1.));
#738=DIRECTION('',(1.,0.,0.));
#739=DIRECTION('',(0.,0.,1.));
#740=DIRECTION('',(0.,0.,1.));
#741=DIRECTION('',(1.,0.,0.));
#742=DIRECTION('',(0.,0.,-1.));
#743=DIRECTION('',(0.,0.,1.));
#744=DIRECTION('',(0.,0.,1.));
#745=DIRECTION('',(0.,0.,1.));
#746=DIRECTION('',(1.,0.,0.));
#747=DIRECTION('',(0.,0.,1.));
#748=DIRECTION('',(0.,0.,1.));
#749=DIRECTION('',(0.5,0.866025403784439,0.));
#750=DIRECTION('',(-0.866025403784439,0.5,0.));
#751=DIRECTION('',(0.,0.,1.));
#752=DIRECTION('',(0.,0.,1.));
#753=DIRECTION('',(0.,0.,1.));
#754=DIRECTION('',(1.,0.,0.));
#755=DIRECTION('',(0.,0.,1.));
#756=DIRECTION('',(0.,0.,1.));
#757=DIRECTION('',(-0.5,0.866025403784439,0.));
#758=DIRECTION('',(-0.866025403784439,-0.5,0.));
#759=DIRECTION('',(0.,0.,1.));
#760=DIRECTION('',(0.,0.,1.));
#761=DIRECTION('',(0.,0.,1.));
#762=DIRECTION('',(1.,0.,0.));
#763=DIRECTION('',(0.,0.,1.));
#764=DIRECTION('',(0.,0.,1.));
#765=DIRECTION('',(-1.,0.,0.));
#766=DIRECTION('',(0.,0.,1.));
#767=DIRECTION('',(0.,0.,1.));
#768=DIRECTION('',(0.,0.,1.));
#769=DIRECTION('',(0.,0.,1.));
#770=DIRECTION('',(1.,0.,0.));
#771=DIRECTION('',(0.,0.,1.));
#772=DIRECTION('',(0.,0.,1.));
#773=DIRECTION('',(-0.5,-0.866025403784438,0.));
#774=DIRECTION('',(0.866025403784438,-0.5,0.));
#775=DIRECTION('',(0.,0.,1.));
#776=DIRECTION('',(0.,0.,1.));
#777=DIRECTION('',(0.,0.,1.));
#778=DIRECTION('',(1.,0.,0.));
#779=DIRECTION('',(0.,0.,1.));
#780=DIRECTION('',(0.,0.,1.));
#781=DIRECTION('',(0.,0.,1.));
#782=DIRECTION('',(1.,0.,0.));
#783=DIRECTION('',(0.,0.,1.));
#784=DIRECTION('',(1.,0.,0.));
#785=DIRECTION('',(0.,0.,1.));
#786=DIRECTION('',(1.,0.,0.));
#787=DIRECTION('',(0.,0.,1.));
#788=DIRECTION('',(1.,0.,0.));
#789=DIRECTION('',(0.,0.,1.));
#790=DIRECTION('',(1.,0.,0.));
#791=DIRECTION('',(0.,0.,1.));
#792=DIRECTION('',(1.,0.,0.));
#793=DIRECTION('',(0.,0.,1.));
#794=DIRECTION('',(1.,0.,0.));
#795=DIRECTION('',(0.,0.,1.));
#796=DIRECTION('',(1.,0.,0.));
#797=DIRECTION('',(0.,0.,1.));
#798=DIRECTION('',(1.,0.,0.));
#799=DIRECTION('',(0.,0.,1.));
#800=DIRECTION('',(1.,0.,0.));
#801=DIRECTION('',(0.,0.,1.));
#802=DIRECTION('',(1.,0.,0.));
#803=DIRECTION('',(0.,0.,1.));
#804=DIRECTION('',(1.,0.,0.));
#805=CARTESIAN_POINT('',(0.,0.,0.));
#806=CARTESIAN_POINT('',(0.00575,0.,0.));
#807=CARTESIAN_POINT('',(0.,0.,0.));
#808=CARTESIAN_POINT('',(-0.0065,0.,0.));
#809=CARTESIAN_POINT('',(0.,0.,0.));
#810=CARTESIAN_POINT('',(-0.005,0.,0.));
#811=CARTESIAN_POINT('',(0.,0.,0.0015));
#812=CARTESIAN_POINT('',(0.,0.,0.002));
#813=CARTESIAN_POINT('',(-0.005,0.,0.002));
#814=CARTESIAN_POINT('',(0.0025,0.,0.002));
#815=CARTESIAN_POINT('',(-0.0035,-0.00202072594216369,0.002));
#816=CARTESIAN_POINT('',(-0.00356666666666667,-0.00194619034291369,0.002));
#817=CARTESIAN_POINT('',(-0.00346878361089655,-0.00211572876870764,0.002));
#818=CARTESIAN_POINT('',(-0.0037,-0.00179711914441371,0.002));
#819=CARTESIAN_POINT('',(-0.0035,-0.00179711914441371,0.002));
#820=CARTESIAN_POINT('',(-0.0035,1.95156391047391E-18,0.002));
#821=CARTESIAN_POINT('',(-0.0035,0.00179711914441372,0.002));
#822=CARTESIAN_POINT('',(-0.0037,0.00179711914441372,0.002));
#823=CARTESIAN_POINT('',(-0.00356666666666667,0.0019461903429137,0.002));
#824=CARTESIAN_POINT('',(-0.0035,0.00202072594216369,0.002));
#825=CARTESIAN_POINT('',(-0.00346878361089654,0.00211572876870765,0.002));
#826=CARTESIAN_POINT('',(-0.00340635083268963,0.00230573442179557,0.002));
#827=CARTESIAN_POINT('',(-0.00330635083268963,0.00213252934103868,0.002));
#828=CARTESIAN_POINT('',(-0.00175,0.00303108891324554,0.002));
#829=CARTESIAN_POINT('',(-0.000193649167310369,0.00392964848545239,0.002));
#830=CARTESIAN_POINT('',(-0.000293649167310369,0.00410285356620928,0.002));
#831=CARTESIAN_POINT('',(-9.78830557701222E-5,0.00406191911162135,0.002));
#832=CARTESIAN_POINT('',(1.51416839489954E-18,0.00404145188432738,0.002));
#833=CARTESIAN_POINT('',(9.78830557701252E-5,0.00406191911162135,0.002));
#834=CARTESIAN_POINT('',(0.000293649167310372,0.00410285356620928,0.002));
#835=CARTESIAN_POINT('',(0.000193649167310372,0.00392964848545239,0.002));
#836=CARTESIAN_POINT('',(0.00175,0.00303108891324554,0.002));
#837=CARTESIAN_POINT('',(0.00330635083268963,0.00213252934103868,0.002));
#838=CARTESIAN_POINT('',(0.00340635083268963,0.00230573442179556,0.002));
#839=CARTESIAN_POINT('',(0.00346878361089655,0.00211572876870765,0.002));
#840=CARTESIAN_POINT('',(0.0035,0.00202072594216369,0.002));
#841=CARTESIAN_POINT('',(0.00356666666666667,0.00194619034291369,0.002));
#842=CARTESIAN_POINT('',(0.0037,0.00179711914441371,0.002));
#843=CARTESIAN_POINT('',(0.0035,0.00179711914441371,0.002));
#844=CARTESIAN_POINT('',(0.0035,-1.95156391047391E-18,0.002));
#845=CARTESIAN_POINT('',(0.0035,-0.00179711914441372,0.002));
#846=CARTESIAN_POINT('',(0.0037,-0.00179711914441372,0.002));
#847=CARTESIAN_POINT('',(0.00356666666666667,-0.0019461903429137,0.002));
#848=CARTESIAN_POINT('',(0.0035,-0.00202072594216369,0.002));
#849=CARTESIAN_POINT('',(0.00346878361089654,-0.00211572876870765,0.002));
#850=CARTESIAN_POINT('',(0.00340635083268962,-0.00230573442179557,0.002));
#851=CARTESIAN_POINT('',(0.00330635083268963,-0.00213252934103868,0.002));
#852=CARTESIAN_POINT('',(0.00175,-0.00303108891324554,0.002));
#853=CARTESIAN_POINT('',(0.000193649167310369,-0.00392964848545239,0.002));
#854=CARTESIAN_POINT('',(0.000293649167310369,-0.00410285356620928,0.002));
#855=CARTESIAN_POINT('',(9.78830557701224E-5,-0.00406191911162135,0.002));
#856=CARTESIAN_POINT('',(-1.49603779281199E-18,-0.00404145188432738,0.002));
#857=CARTESIAN_POINT('',(-9.78830557701254E-5,-0.00406191911162135,0.002));
#858=CARTESIAN_POINT('',(-0.000293649167310372,-0.00410285356620928,0.002));
#859=CARTESIAN_POINT('',(-0.000193649167310373,-0.00392964848545239,0.002));
#860=CARTESIAN_POINT('',(-0.00175,-0.00303108891324554,0.002));
#861=CARTESIAN_POINT('',(-0.00330635083268963,-0.00213252934103868,0.002));
#862=CARTESIAN_POINT('',(-0.00340635083268963,-0.00230573442179556,0.002));
#863=CARTESIAN_POINT('',(0.0025,0.,-0.004));
#864=CARTESIAN_POINT('',(-0.0035,0.,-0.004));
#865=CARTESIAN_POINT('',(-0.0035,0.00179711914441372,-0.004));
#866=CARTESIAN_POINT('',(-0.0035,-0.00179711914441371,-0.004));
#867=CARTESIAN_POINT('',(-0.0037,-0.00179711914441371,-0.004));
#868=CARTESIAN_POINT('',(-0.00356666666666667,-0.00194619034291369,-0.004));
#869=CARTESIAN_POINT('',(-0.0035,-0.00202072594216369,-0.004));
#870=CARTESIAN_POINT('',(-0.00346878361089655,-0.00211572876870764,-0.004));
#871=CARTESIAN_POINT('',(-0.00340635083268963,-0.00230573442179556,-0.004));
#872=CARTESIAN_POINT('',(-0.00330635083268963,-0.00213252934103867,-0.004));
#873=CARTESIAN_POINT('',(0.000124999999999997,-0.00411362066797609,-0.004));
#874=CARTESIAN_POINT('',(-0.000193649167310372,-0.00392964848545239,-0.004));
#875=CARTESIAN_POINT('',(-0.000293649167310372,-0.00410285356620928,-0.004));
#876=CARTESIAN_POINT('',(-9.78830557701254E-5,-0.00406191911162135,-0.004));
#877=CARTESIAN_POINT('',(-1.49603779281199E-18,-0.00404145188432738,-0.004));
#878=CARTESIAN_POINT('',(9.78830557701224E-5,-0.00406191911162135,-0.004));
#879=CARTESIAN_POINT('',(0.000293649167310369,-0.00410285356620928,-0.004));
#880=CARTESIAN_POINT('',(0.000193649167310369,-0.00392964848545239,-0.004));
#881=CARTESIAN_POINT('',(0.003625,-0.00194855715851499,-0.004));
#882=CARTESIAN_POINT('',(0.00330635083268963,-0.00213252934103869,-0.004));
#883=CARTESIAN_POINT('',(0.00340635083268962,-0.00230573442179557,-0.004));
#884=CARTESIAN_POINT('',(0.00346878361089654,-0.00211572876870765,-0.004));
#885=CARTESIAN_POINT('',(0.0035,-0.00202072594216369,-0.004));
#886=CARTESIAN_POINT('',(0.00356666666666667,-0.0019461903429137,-0.004));
#887=CARTESIAN_POINT('',(0.0037,-0.00179711914441372,-0.004));
#888=CARTESIAN_POINT('',(0.0035,-0.00179711914441372,-0.004));
#889=CARTESIAN_POINT('',(0.0035,0.,-0.004));
#890=CARTESIAN_POINT('',(0.0035,0.00179711914441371,-0.004));
#891=CARTESIAN_POINT('',(0.0037,0.00179711914441371,-0.004));
#892=CARTESIAN_POINT('',(0.00356666666666667,0.00194619034291369,-0.004));
#893=CARTESIAN_POINT('',(0.0035,0.00202072594216369,-0.004));
#894=CARTESIAN_POINT('',(0.00346878361089655,0.00211572876870765,-0.004));
#895=CARTESIAN_POINT('',(0.00340635083268963,0.00230573442179556,-0.004));
#896=CARTESIAN_POINT('',(0.00330635083268963,0.00213252934103868,-0.004));
#897=CARTESIAN_POINT('',(0.003625,0.00194855715851499,-0.004));
#898=CARTESIAN_POINT('',(0.000193649167310371,0.00392964848545239,-0.004));
#899=CARTESIAN_POINT('',(0.000293649167310372,0.00410285356620928,-0.004));
#900=CARTESIAN_POINT('',(9.78830557701252E-5,0.00406191911162135,-0.004));
#901=CARTESIAN_POINT('',(1.51416839489954E-18,0.00404145188432738,-0.004));
#902=CARTESIAN_POINT('',(-9.78830557701222E-5,0.00406191911162135,-0.004));
#903=CARTESIAN_POINT('',(-0.000293649167310369,0.00410285356620928,-0.004));
#904=CARTESIAN_POINT('',(-0.000193649167310369,0.00392964848545239,-0.004));
#905=CARTESIAN_POINT('',(0.000125000000000001,0.00411362066797609,-0.004));
#906=CARTESIAN_POINT('',(-0.00330635083268963,0.00213252934103868,-0.004));
#907=CARTESIAN_POINT('',(-0.00340635083268963,0.00230573442179557,-0.004));
#908=CARTESIAN_POINT('',(-0.00346878361089654,0.00211572876870765,-0.004));
#909=CARTESIAN_POINT('',(-0.0035,0.00202072594216369,-0.004));
#910=CARTESIAN_POINT('',(-0.00356666666666667,0.0019461903429137,-0.004));
#911=CARTESIAN_POINT('',(-0.0037,0.00179711914441372,-0.004));
#912=CARTESIAN_POINT('',(0.,0.,-0.004));
#913=CARTESIAN_POINT('',(-0.005,0.,-0.004));
#914=CARTESIAN_POINT('',(0.,0.,0.0015));
#915=CARTESIAN_POINT('',(0.,0.,-0.001));
#916=CARTESIAN_POINT('',(-0.005,0.,-0.001));
#917=CARTESIAN_POINT('',(0.,0.,0.));
#918=CARTESIAN_POINT('',(0.00175,-0.00303108891324554,-0.023));
#919=CARTESIAN_POINT('',(0.000193649167310369,-0.00392964848545239,-0.023));
#920=CARTESIAN_POINT('',(0.00330635083268963,-0.00213252934103868,-0.023));
#921=CARTESIAN_POINT('',(0.0035,-0.00202072594216369,-0.023));
#922=CARTESIAN_POINT('',(0.00346878361089654,-0.00211572876870765,-0.023));
#923=CARTESIAN_POINT('',(0.00356666666666667,-0.0019461903429137,-0.023));
#924=CARTESIAN_POINT('',(0.0035,-1.95156391047391E-18,-0.023));
#925=CARTESIAN_POINT('',(0.0035,-0.00179711914441372,-0.023));
#926=CARTESIAN_POINT('',(0.0035,0.00179711914441371,-0.023));
#927=CARTESIAN_POINT('',(0.0035,0.00202072594216369,-0.023));
#928=CARTESIAN_POINT('',(0.00356666666666667,0.00194619034291369,-0.023));
#929=CARTESIAN_POINT('',(0.00346878361089655,0.00211572876870765,-0.023));
#930=CARTESIAN_POINT('',(0.00175,0.00303108891324554,-0.023));
#931=CARTESIAN_POINT('',(0.00330635083268963,0.00213252934103868,-0.023));
#932=CARTESIAN_POINT('',(0.000193649167310372,0.00392964848545239,-0.023));
#933=CARTESIAN_POINT('',(1.51416839489954E-18,0.00404145188432738,-0.023));
#934=CARTESIAN_POINT('',(9.78830557701252E-5,0.00406191911162135,-0.023));
#935=CARTESIAN_POINT('',(-9.78830557701222E-5,0.00406191911162135,-0.023));
#936=CARTESIAN_POINT('',(-0.00175,0.00303108891324554,-0.023));
#937=CARTESIAN_POINT('',(-0.000193649167310369,0.00392964848545239,-0.023));
#938=CARTESIAN_POINT('',(-0.00330635083268963,0.00213252934103868,-0.023));
#939=CARTESIAN_POINT('',(-0.0035,0.00202072594216369,-0.023));
#940=CARTESIAN_POINT('',(-0.00356666666666667,0.0019461903429137,-0.023));
#941=CARTESIAN_POINT('',(-0.00346878361089654,0.00211572876870765,-0.023));
#942=CARTESIAN_POINT('',(-0.0035,1.95156391047391E-18,-0.023));
#943=CARTESIAN_POINT('',(-0.0035,-0.00179711914441371,-0.023));
#944=CARTESIAN_POINT('',(-0.0035,0.00179711914441372,-0.023));
#945=CARTESIAN_POINT('',(-0.0035,-0.00202072594216369,-0.023));
#946=CARTESIAN_POINT('',(-0.00356666666666667,-0.00194619034291369,-0.023));
#947=CARTESIAN_POINT('',(-0.00346878361089655,-0.00211572876870764,-0.023));
#948=CARTESIAN_POINT('',(-0.00175,-0.00303108891324554,-0.023));
#949=CARTESIAN_POINT('',(-0.00330635083268963,-0.00213252934103868,-0.023));
#950=CARTESIAN_POINT('',(-0.000193649167310373,-0.00392964848545239,-0.023));
#951=CARTESIAN_POINT('',(-1.49603779281199E-18,-0.00404145188432738,-0.023));
#952=CARTESIAN_POINT('',(-9.78830557701254E-5,-0.00406191911162135,-0.023));
#953=CARTESIAN_POINT('',(9.78830557701224E-5,-0.00406191911162135,-0.023));
#954=CARTESIAN_POINT('',(-0.0037,-0.00179711914441371,-0.023));
#955=CARTESIAN_POINT('',(-0.00340635083268963,-0.00230573442179556,-0.023));
#956=CARTESIAN_POINT('',(-0.000293649167310372,-0.00410285356620928,-0.023));
#957=CARTESIAN_POINT('',(0.000293649167310369,-0.00410285356620928,-0.023));
#958=CARTESIAN_POINT('',(0.00340635083268962,-0.00230573442179557,-0.023));
#959=CARTESIAN_POINT('',(0.0037,-0.00179711914441372,-0.023));
#960=CARTESIAN_POINT('',(0.0037,0.00179711914441371,-0.023));
#961=CARTESIAN_POINT('',(0.00340635083268963,0.00230573442179556,-0.023));
#962=CARTESIAN_POINT('',(0.000293649167310372,0.00410285356620928,-0.023));
#963=CARTESIAN_POINT('',(-0.000293649167310369,0.00410285356620928,-0.023));
#964=CARTESIAN_POINT('',(-0.0037,0.00179711914441372,-0.023));
#965=CARTESIAN_POINT('',(-0.00340635083268963,0.00230573442179557,-0.023));
#966=MECHANICAL_DESIGN_GEOMETRIC_PRESENTATION_REPRESENTATION('',(#542),
#967);
#967=(
GEOMETRIC_REPRESENTATION_CONTEXT(3)
GLOBAL_UNCERTAINTY_ASSIGNED_CONTEXT((#968))
GLOBAL_UNIT_ASSIGNED_CONTEXT((#971,#970,#969))
REPRESENTATION_CONTEXT('Holder','TOP_LEVEL_ASSEMBLY_PART')
);
#968=UNCERTAINTY_MEASURE_WITH_UNIT(LENGTH_MEASURE(1.E-8),#971,
'DISTANCE_ACCURACY_VALUE','Maximum Tolerance applied to model');
#969=(
NAMED_UNIT(*)
SI_UNIT($,.STERADIAN.)
SOLID_ANGLE_UNIT()
);
#970=(
NAMED_UNIT(*)
PLANE_ANGLE_UNIT()
SI_UNIT($,.RADIAN.)
);
#971=(
LENGTH_UNIT()
NAMED_UNIT(*)
SI_UNIT($,.METRE.)
);
#972=PRODUCT_DEFINITION_SHAPE('','',#973);
#973=PRODUCT_DEFINITION('','',#975,#974);
#974=PRODUCT_DEFINITION_CONTEXT('',#981,'design');
#975=PRODUCT_DEFINITION_FORMATION_WITH_SPECIFIED_SOURCE('','',#977,
 .NOT_KNOWN.);
#976=PRODUCT_RELATED_PRODUCT_CATEGORY('','',(#977));
#977=PRODUCT('Holder','Holder','Holder',(#979));
#978=PRODUCT_CATEGORY('','');
#979=PRODUCT_CONTEXT('',#981,'mechanical');
#980=APPLICATION_PROTOCOL_DEFINITION('international standard',
'ap242_managed_model_based_3d_engineering',2011,#981);
#981=APPLICATION_CONTEXT('managed model based 3d engineering');
ENDSEC;
END-ISO-10303-21;
